G04 (created by PCBNEW (2013-07-14 BZR 4242)-stable) date Thu 29 Aug 2013 04:13:20 PM CEST*
%MOIN*%
G04 Gerber Fmt 3.4, Leading zero omitted, Abs format*
%FSLAX34Y34*%
G01*
G70*
G90*
G04 APERTURE LIST*
%ADD10C,0.005906*%
%ADD11C,0.005900*%
%ADD12C,0.003900*%
%ADD13C,0.003921*%
%ADD14C,0.008000*%
%ADD15C,0.007800*%
%ADD16C,0.081874*%
%ADD17C,0.134200*%
%ADD18R,0.303074X0.066874*%
%ADD19R,0.263774X0.047174*%
%ADD20R,0.032874X0.052874*%
%ADD21R,0.052874X0.032874*%
%ADD22R,0.039274X0.039274*%
%ADD23R,0.066874X0.017674*%
%ADD24R,0.017674X0.066874*%
%ADD25R,0.051181X0.070866*%
G04 APERTURE END LIST*
G54D10*
G54D11*
X27325Y-18400D02*
G75*
G03X27525Y-18200I0J200D01*
G74*
G01*
X26225Y-18450D02*
G75*
G03X26475Y-18200I0J250D01*
G74*
G01*
X25875Y-18450D02*
G75*
G03X25725Y-18600I0J-150D01*
G74*
G01*
X27480Y-21780D02*
G75*
G03X27260Y-21560I-220J0D01*
G74*
G01*
X27040Y-21340D02*
G75*
G03X27260Y-21560I220J0D01*
G74*
G01*
X25780Y-21600D02*
G75*
G03X25540Y-21840I0J-240D01*
G74*
G01*
X25780Y-21600D02*
G75*
G03X26020Y-21360I0J240D01*
G74*
G01*
X28225Y-18425D02*
G75*
G03X28500Y-18150I0J275D01*
G74*
G01*
X23540Y-18180D02*
G75*
G03X23840Y-18480I300J0D01*
G74*
G01*
X24040Y-18680D02*
G75*
G03X23840Y-18480I-200J0D01*
G74*
G01*
X24500Y-18125D02*
G75*
G03X24700Y-18325I200J0D01*
G74*
G01*
X24825Y-18500D02*
G75*
G03X24700Y-18325I-150J25D01*
G74*
G01*
X25400Y-18325D02*
G75*
G03X25500Y-18225I0J100D01*
G74*
G01*
X25400Y-18325D02*
G75*
G03X25275Y-18450I0J-125D01*
G74*
G01*
X27200Y-18400D02*
G75*
G03X27000Y-18600I0J-200D01*
G74*
G01*
X27625Y-18425D02*
G75*
G03X27450Y-18600I0J-175D01*
G74*
G01*
X26990Y-20790D02*
X27500Y-20790D01*
X26990Y-20300D02*
X26990Y-20790D01*
X26170Y-20530D02*
X26990Y-20300D01*
X28450Y-21600D02*
X28450Y-22500D01*
X28450Y-22500D02*
X27550Y-22500D01*
X27550Y-22500D02*
X27550Y-21600D01*
X27550Y-21600D02*
X28450Y-21600D01*
X27463Y-20718D02*
X27480Y-20667D01*
X27480Y-20583D01*
X27463Y-20549D01*
X27446Y-20532D01*
X27412Y-20516D01*
X27379Y-20516D01*
X27345Y-20532D01*
X27328Y-20549D01*
X27311Y-20583D01*
X27294Y-20650D01*
X27277Y-20684D01*
X27261Y-20701D01*
X27227Y-20718D01*
X27193Y-20718D01*
X27159Y-20701D01*
X27143Y-20684D01*
X27126Y-20650D01*
X27126Y-20566D01*
X27143Y-20516D01*
X27126Y-20398D02*
X27480Y-20313D01*
X27227Y-20246D01*
X27480Y-20178D01*
X27126Y-20094D01*
X27480Y-19959D02*
X27126Y-19959D01*
X27126Y-19875D01*
X27143Y-19824D01*
X27176Y-19791D01*
X27210Y-19774D01*
X27277Y-19757D01*
X27328Y-19757D01*
X27395Y-19774D01*
X27429Y-19791D01*
X27463Y-19824D01*
X27480Y-19875D01*
X27480Y-19959D01*
X26020Y-19660D02*
X27520Y-19660D01*
X26020Y-21360D02*
X26020Y-19660D01*
G54D12*
X15300Y-17430D02*
X15300Y-16500D01*
X15300Y-22574D02*
X15300Y-23500D01*
X29500Y-23700D02*
X15500Y-23700D01*
X29700Y-16500D02*
X29700Y-23500D01*
X15500Y-16300D02*
X29500Y-16300D01*
X10239Y-17630D02*
X15100Y-17630D01*
X10239Y-22374D02*
X15100Y-22374D01*
X10039Y-17830D02*
X10039Y-22174D01*
G54D13*
X10239Y-22374D02*
X10039Y-22174D01*
X15300Y-22574D02*
X15100Y-22374D01*
X15500Y-23700D02*
X15300Y-23500D01*
X29700Y-23500D02*
X29500Y-23700D01*
X29500Y-16300D02*
X29700Y-16500D01*
X15300Y-16500D02*
X15500Y-16300D01*
X15100Y-17630D02*
X15300Y-17430D01*
G54D12*
X10239Y-17630D02*
X10039Y-17830D01*
G54D11*
X27450Y-18600D02*
X27450Y-19400D01*
X28225Y-18425D02*
X27625Y-18425D01*
X28500Y-18000D02*
X28500Y-18150D01*
X27000Y-18600D02*
X27000Y-19400D01*
X27525Y-18200D02*
X27525Y-18000D01*
X27200Y-18400D02*
X27325Y-18400D01*
X25725Y-18600D02*
X25725Y-19400D01*
X26225Y-18450D02*
X25875Y-18450D01*
X26475Y-18000D02*
X26475Y-18200D01*
X25500Y-18225D02*
X25500Y-18000D01*
X24500Y-18125D02*
X24500Y-18000D01*
X26540Y-21080D02*
X26540Y-22000D01*
X27040Y-21340D02*
X27040Y-21080D01*
X27480Y-21780D02*
X27480Y-22000D01*
X25540Y-21840D02*
X25540Y-22900D01*
X23540Y-18180D02*
X23540Y-17320D01*
X24040Y-19080D02*
X24040Y-18680D01*
X24825Y-18450D02*
X24825Y-19400D01*
X25275Y-18450D02*
X25275Y-19400D01*
X27326Y-18860D02*
X27123Y-18860D01*
X27225Y-18860D02*
X27225Y-18506D01*
X27191Y-18556D01*
X27157Y-18590D01*
X27123Y-18607D01*
X27678Y-18674D02*
X27728Y-18691D01*
X27745Y-18708D01*
X27762Y-18742D01*
X27762Y-18792D01*
X27745Y-18826D01*
X27728Y-18843D01*
X27695Y-18860D01*
X27560Y-18860D01*
X27560Y-18506D01*
X27678Y-18506D01*
X27711Y-18523D01*
X27728Y-18539D01*
X27745Y-18573D01*
X27745Y-18607D01*
X27728Y-18641D01*
X27711Y-18657D01*
X27678Y-18674D01*
X27560Y-18674D01*
X28099Y-18860D02*
X27897Y-18860D01*
X27998Y-18860D02*
X27998Y-18506D01*
X27964Y-18556D01*
X27931Y-18590D01*
X27897Y-18607D01*
X28217Y-18506D02*
X28453Y-18506D01*
X28301Y-18860D01*
X27460Y-17900D02*
G75*
G03X27460Y-17900I-460J0D01*
G74*
G01*
X25398Y-19039D02*
X25415Y-19023D01*
X25449Y-19006D01*
X25533Y-19006D01*
X25567Y-19023D01*
X25584Y-19039D01*
X25601Y-19073D01*
X25601Y-19107D01*
X25584Y-19157D01*
X25382Y-19360D01*
X25601Y-19360D01*
X25382Y-18506D02*
X25601Y-18506D01*
X25483Y-18641D01*
X25533Y-18641D01*
X25567Y-18657D01*
X25584Y-18674D01*
X25601Y-18708D01*
X25601Y-18792D01*
X25584Y-18826D01*
X25567Y-18843D01*
X25533Y-18860D01*
X25432Y-18860D01*
X25398Y-18843D01*
X25382Y-18826D01*
X25827Y-19006D02*
X26046Y-19006D01*
X25928Y-19141D01*
X25979Y-19141D01*
X26012Y-19157D01*
X26029Y-19174D01*
X26046Y-19208D01*
X26046Y-19292D01*
X26029Y-19326D01*
X26012Y-19343D01*
X25979Y-19360D01*
X25878Y-19360D01*
X25844Y-19343D01*
X25827Y-19326D01*
X26198Y-19326D02*
X26215Y-19343D01*
X26198Y-19360D01*
X26181Y-19343D01*
X26198Y-19326D01*
X26198Y-19360D01*
X26333Y-19006D02*
X26552Y-19006D01*
X26434Y-19141D01*
X26484Y-19141D01*
X26518Y-19157D01*
X26535Y-19174D01*
X26552Y-19208D01*
X26552Y-19292D01*
X26535Y-19326D01*
X26518Y-19343D01*
X26484Y-19360D01*
X26383Y-19360D01*
X26350Y-19343D01*
X26333Y-19326D01*
X26653Y-19006D02*
X26771Y-19360D01*
X26889Y-19006D01*
X26105Y-18523D02*
X26071Y-18506D01*
X26021Y-18506D01*
X25970Y-18523D01*
X25936Y-18556D01*
X25919Y-18590D01*
X25903Y-18657D01*
X25903Y-18708D01*
X25919Y-18775D01*
X25936Y-18809D01*
X25970Y-18843D01*
X26021Y-18860D01*
X26054Y-18860D01*
X26105Y-18843D01*
X26122Y-18826D01*
X26122Y-18708D01*
X26054Y-18708D01*
X26273Y-18860D02*
X26273Y-18506D01*
X26476Y-18860D01*
X26476Y-18506D01*
X26644Y-18860D02*
X26644Y-18506D01*
X26729Y-18506D01*
X26779Y-18523D01*
X26813Y-18556D01*
X26830Y-18590D01*
X26847Y-18657D01*
X26847Y-18708D01*
X26830Y-18775D01*
X26813Y-18809D01*
X26779Y-18843D01*
X26729Y-18860D01*
X26644Y-18860D01*
X19897Y-22409D02*
X20065Y-22409D01*
X19863Y-22510D02*
X19981Y-22156D01*
X20099Y-22510D01*
X20200Y-22189D02*
X20217Y-22173D01*
X20251Y-22156D01*
X20335Y-22156D01*
X20369Y-22173D01*
X20386Y-22189D01*
X20402Y-22223D01*
X20402Y-22257D01*
X20386Y-22307D01*
X20183Y-22510D01*
X20402Y-22510D01*
X26970Y-20145D02*
X26616Y-20145D01*
X26616Y-19909D02*
X26616Y-19841D01*
X26633Y-19808D01*
X26666Y-19774D01*
X26734Y-19757D01*
X26852Y-19757D01*
X26919Y-19774D01*
X26953Y-19808D01*
X26970Y-19841D01*
X26970Y-19909D01*
X26953Y-19942D01*
X26919Y-19976D01*
X26852Y-19993D01*
X26734Y-19993D01*
X26666Y-19976D01*
X26633Y-19942D01*
X26616Y-19909D01*
X26426Y-20111D02*
X26443Y-20128D01*
X26460Y-20178D01*
X26460Y-20212D01*
X26443Y-20263D01*
X26409Y-20296D01*
X26375Y-20313D01*
X26308Y-20330D01*
X26257Y-20330D01*
X26190Y-20313D01*
X26156Y-20296D01*
X26123Y-20263D01*
X26106Y-20212D01*
X26106Y-20178D01*
X26123Y-20128D01*
X26139Y-20111D01*
X26460Y-19959D02*
X26106Y-19959D01*
X26460Y-19757D02*
X26257Y-19909D01*
X26106Y-19757D02*
X26308Y-19959D01*
X27208Y-19006D02*
X27241Y-19006D01*
X27275Y-19023D01*
X27292Y-19039D01*
X27309Y-19073D01*
X27326Y-19141D01*
X27326Y-19225D01*
X27309Y-19292D01*
X27292Y-19326D01*
X27275Y-19343D01*
X27241Y-19360D01*
X27208Y-19360D01*
X27174Y-19343D01*
X27157Y-19326D01*
X27140Y-19292D01*
X27123Y-19225D01*
X27123Y-19141D01*
X27140Y-19073D01*
X27157Y-19039D01*
X27174Y-19023D01*
X27208Y-19006D01*
X14982Y-21731D02*
X14814Y-21731D01*
X14797Y-21899D01*
X14814Y-21882D01*
X14847Y-21866D01*
X14932Y-21866D01*
X14965Y-21882D01*
X14982Y-21899D01*
X14999Y-21933D01*
X14999Y-22017D01*
X14982Y-22051D01*
X14965Y-22068D01*
X14932Y-22085D01*
X14847Y-22085D01*
X14814Y-22068D01*
X14797Y-22051D01*
X15100Y-21731D02*
X15218Y-22085D01*
X15336Y-21731D01*
X14512Y-18335D02*
X14344Y-18335D01*
X14344Y-17981D01*
X14630Y-18335D02*
X14630Y-17981D01*
X14799Y-18335D02*
X14799Y-17981D01*
X14934Y-17981D01*
X14968Y-17998D01*
X14984Y-18014D01*
X15001Y-18048D01*
X15001Y-18099D01*
X14984Y-18132D01*
X14968Y-18149D01*
X14934Y-18166D01*
X14799Y-18166D01*
X15220Y-17981D02*
X15288Y-17981D01*
X15322Y-17998D01*
X15355Y-18031D01*
X15372Y-18099D01*
X15372Y-18217D01*
X15355Y-18284D01*
X15322Y-18318D01*
X15288Y-18335D01*
X15220Y-18335D01*
X15187Y-18318D01*
X15153Y-18284D01*
X15136Y-18217D01*
X15136Y-18099D01*
X15153Y-18031D01*
X15187Y-17998D01*
X15220Y-17981D01*
X27852Y-19360D02*
X27650Y-19360D01*
X27751Y-19360D02*
X27751Y-19006D01*
X27717Y-19056D01*
X27684Y-19090D01*
X27650Y-19107D01*
X28156Y-19006D02*
X28088Y-19006D01*
X28054Y-19023D01*
X28038Y-19039D01*
X28004Y-19090D01*
X27987Y-19157D01*
X27987Y-19292D01*
X28004Y-19326D01*
X28021Y-19343D01*
X28054Y-19360D01*
X28122Y-19360D01*
X28156Y-19343D01*
X28172Y-19326D01*
X28189Y-19292D01*
X28189Y-19208D01*
X28172Y-19174D01*
X28156Y-19157D01*
X28122Y-19141D01*
X28054Y-19141D01*
X28021Y-19157D01*
X28004Y-19174D01*
X27987Y-19208D01*
X26784Y-21297D02*
X26801Y-21247D01*
X26818Y-21230D01*
X26852Y-21213D01*
X26902Y-21213D01*
X26936Y-21230D01*
X26953Y-21247D01*
X26970Y-21280D01*
X26970Y-21415D01*
X26616Y-21415D01*
X26616Y-21297D01*
X26633Y-21264D01*
X26649Y-21247D01*
X26683Y-21230D01*
X26717Y-21230D01*
X26751Y-21247D01*
X26767Y-21264D01*
X26784Y-21297D01*
X26784Y-21415D01*
X26616Y-21095D02*
X26616Y-20876D01*
X26751Y-20994D01*
X26751Y-20943D01*
X26767Y-20910D01*
X26784Y-20893D01*
X26818Y-20876D01*
X26902Y-20876D01*
X26936Y-20893D01*
X26953Y-20910D01*
X26970Y-20943D01*
X26970Y-21044D01*
X26953Y-21078D01*
X26936Y-21095D01*
X26274Y-21297D02*
X26291Y-21247D01*
X26308Y-21230D01*
X26342Y-21213D01*
X26392Y-21213D01*
X26426Y-21230D01*
X26443Y-21247D01*
X26460Y-21280D01*
X26460Y-21415D01*
X26106Y-21415D01*
X26106Y-21297D01*
X26123Y-21264D01*
X26139Y-21247D01*
X26173Y-21230D01*
X26207Y-21230D01*
X26241Y-21247D01*
X26257Y-21264D01*
X26274Y-21297D01*
X26274Y-21415D01*
X26139Y-21078D02*
X26123Y-21061D01*
X26106Y-21028D01*
X26106Y-20943D01*
X26123Y-20910D01*
X26139Y-20893D01*
X26173Y-20876D01*
X26207Y-20876D01*
X26257Y-20893D01*
X26460Y-21095D01*
X26460Y-20876D01*
X24856Y-22324D02*
X24907Y-22341D01*
X24924Y-22358D01*
X24941Y-22392D01*
X24941Y-22442D01*
X24924Y-22476D01*
X24907Y-22493D01*
X24873Y-22510D01*
X24738Y-22510D01*
X24738Y-22156D01*
X24856Y-22156D01*
X24890Y-22173D01*
X24907Y-22189D01*
X24924Y-22223D01*
X24924Y-22257D01*
X24907Y-22291D01*
X24890Y-22307D01*
X24856Y-22324D01*
X24738Y-22324D01*
X25278Y-22510D02*
X25075Y-22510D01*
X25177Y-22510D02*
X25177Y-22156D01*
X25143Y-22206D01*
X25109Y-22240D01*
X25075Y-22257D01*
X23956Y-22324D02*
X24007Y-22341D01*
X24024Y-22358D01*
X24041Y-22392D01*
X24041Y-22442D01*
X24024Y-22476D01*
X24007Y-22493D01*
X23973Y-22510D01*
X23838Y-22510D01*
X23838Y-22156D01*
X23956Y-22156D01*
X23990Y-22173D01*
X24007Y-22189D01*
X24024Y-22223D01*
X24024Y-22257D01*
X24007Y-22291D01*
X23990Y-22307D01*
X23956Y-22324D01*
X23838Y-22324D01*
X24260Y-22156D02*
X24293Y-22156D01*
X24327Y-22173D01*
X24344Y-22189D01*
X24361Y-22223D01*
X24378Y-22291D01*
X24378Y-22375D01*
X24361Y-22442D01*
X24344Y-22476D01*
X24327Y-22493D01*
X24293Y-22510D01*
X24260Y-22510D01*
X24226Y-22493D01*
X24209Y-22476D01*
X24192Y-22442D01*
X24175Y-22375D01*
X24175Y-22291D01*
X24192Y-22223D01*
X24209Y-22189D01*
X24226Y-22173D01*
X24260Y-22156D01*
X22628Y-22409D02*
X22797Y-22409D01*
X22594Y-22510D02*
X22712Y-22156D01*
X22830Y-22510D01*
X23134Y-22510D02*
X22932Y-22510D01*
X23033Y-22510D02*
X23033Y-22156D01*
X22999Y-22206D01*
X22965Y-22240D01*
X22932Y-22257D01*
X23302Y-22510D02*
X23370Y-22510D01*
X23404Y-22493D01*
X23420Y-22476D01*
X23454Y-22425D01*
X23471Y-22358D01*
X23471Y-22223D01*
X23454Y-22189D01*
X23437Y-22173D01*
X23404Y-22156D01*
X23336Y-22156D01*
X23302Y-22173D01*
X23286Y-22189D01*
X23269Y-22223D01*
X23269Y-22307D01*
X23286Y-22341D01*
X23302Y-22358D01*
X23336Y-22375D01*
X23404Y-22375D01*
X23437Y-22358D01*
X23454Y-22341D01*
X23471Y-22307D01*
X21478Y-22409D02*
X21647Y-22409D01*
X21444Y-22510D02*
X21562Y-22156D01*
X21680Y-22510D01*
X21984Y-22510D02*
X21782Y-22510D01*
X21883Y-22510D02*
X21883Y-22156D01*
X21849Y-22206D01*
X21815Y-22240D01*
X21782Y-22257D01*
X22186Y-22307D02*
X22152Y-22291D01*
X22136Y-22274D01*
X22119Y-22240D01*
X22119Y-22223D01*
X22136Y-22189D01*
X22152Y-22173D01*
X22186Y-22156D01*
X22254Y-22156D01*
X22287Y-22173D01*
X22304Y-22189D01*
X22321Y-22223D01*
X22321Y-22240D01*
X22304Y-22274D01*
X22287Y-22291D01*
X22254Y-22307D01*
X22186Y-22307D01*
X22152Y-22324D01*
X22136Y-22341D01*
X22119Y-22375D01*
X22119Y-22442D01*
X22136Y-22476D01*
X22152Y-22493D01*
X22186Y-22510D01*
X22254Y-22510D01*
X22287Y-22493D01*
X22304Y-22476D01*
X22321Y-22442D01*
X22321Y-22375D01*
X22304Y-22341D01*
X22287Y-22324D01*
X22254Y-22307D01*
X20697Y-22409D02*
X20865Y-22409D01*
X20663Y-22510D02*
X20781Y-22156D01*
X20899Y-22510D01*
X21169Y-22274D02*
X21169Y-22510D01*
X21084Y-22139D02*
X21000Y-22392D01*
X21219Y-22392D01*
X19097Y-22409D02*
X19265Y-22409D01*
X19063Y-22510D02*
X19181Y-22156D01*
X19299Y-22510D01*
X19602Y-22510D02*
X19400Y-22510D01*
X19501Y-22510D02*
X19501Y-22156D01*
X19468Y-22206D01*
X19434Y-22240D01*
X19400Y-22257D01*
X17143Y-22433D02*
X17161Y-22228D01*
X16988Y-22303D02*
X17216Y-22032D01*
X17319Y-22119D01*
X17334Y-22153D01*
X17336Y-22177D01*
X17327Y-22214D01*
X17295Y-22252D01*
X17260Y-22267D01*
X17237Y-22269D01*
X17200Y-22261D01*
X17097Y-22174D01*
X17379Y-22389D02*
X17469Y-22464D01*
X17389Y-22639D02*
X17259Y-22531D01*
X17487Y-22259D01*
X17616Y-22368D01*
X17714Y-22670D02*
X17624Y-22594D01*
X17505Y-22736D02*
X17732Y-22465D01*
X17861Y-22574D01*
X24341Y-19326D02*
X24324Y-19343D01*
X24273Y-19360D01*
X24239Y-19360D01*
X24189Y-19343D01*
X24155Y-19309D01*
X24138Y-19275D01*
X24121Y-19208D01*
X24121Y-19157D01*
X24138Y-19090D01*
X24155Y-19056D01*
X24189Y-19023D01*
X24239Y-19006D01*
X24273Y-19006D01*
X24324Y-19023D01*
X24341Y-19039D01*
X24644Y-19124D02*
X24644Y-19360D01*
X24560Y-18989D02*
X24475Y-19242D01*
X24695Y-19242D01*
X25134Y-18506D02*
X24965Y-18506D01*
X24948Y-18674D01*
X24965Y-18657D01*
X24999Y-18641D01*
X25083Y-18641D01*
X25117Y-18657D01*
X25134Y-18674D01*
X25151Y-18708D01*
X25151Y-18792D01*
X25134Y-18826D01*
X25117Y-18843D01*
X25083Y-18860D01*
X24999Y-18860D01*
X24965Y-18843D01*
X24948Y-18826D01*
X25117Y-19006D02*
X25050Y-19006D01*
X25016Y-19023D01*
X24999Y-19039D01*
X24965Y-19090D01*
X24948Y-19157D01*
X24948Y-19292D01*
X24965Y-19326D01*
X24982Y-19343D01*
X25016Y-19360D01*
X25083Y-19360D01*
X25117Y-19343D01*
X25134Y-19326D01*
X25151Y-19292D01*
X25151Y-19208D01*
X25134Y-19174D01*
X25117Y-19157D01*
X25083Y-19141D01*
X25016Y-19141D01*
X24982Y-19157D01*
X24965Y-19174D01*
X24948Y-19208D01*
X24341Y-18826D02*
X24324Y-18843D01*
X24273Y-18860D01*
X24239Y-18860D01*
X24189Y-18843D01*
X24155Y-18809D01*
X24138Y-18775D01*
X24121Y-18708D01*
X24121Y-18657D01*
X24138Y-18590D01*
X24155Y-18556D01*
X24189Y-18523D01*
X24239Y-18506D01*
X24273Y-18506D01*
X24324Y-18523D01*
X24341Y-18539D01*
X24459Y-18506D02*
X24695Y-18506D01*
X24543Y-18860D01*
X22738Y-17885D02*
X22738Y-17531D01*
X22823Y-17531D01*
X22873Y-17548D01*
X22907Y-17581D01*
X22924Y-17615D01*
X22941Y-17682D01*
X22941Y-17733D01*
X22924Y-17800D01*
X22907Y-17834D01*
X22873Y-17868D01*
X22823Y-17885D01*
X22738Y-17885D01*
X23160Y-17531D02*
X23193Y-17531D01*
X23227Y-17548D01*
X23244Y-17564D01*
X23261Y-17598D01*
X23278Y-17666D01*
X23278Y-17750D01*
X23261Y-17817D01*
X23244Y-17851D01*
X23227Y-17868D01*
X23193Y-17885D01*
X23160Y-17885D01*
X23126Y-17868D01*
X23109Y-17851D01*
X23092Y-17817D01*
X23075Y-17750D01*
X23075Y-17666D01*
X23092Y-17598D01*
X23109Y-17564D01*
X23126Y-17548D01*
X23160Y-17531D01*
X21738Y-17885D02*
X21738Y-17531D01*
X21823Y-17531D01*
X21873Y-17548D01*
X21907Y-17581D01*
X21924Y-17615D01*
X21941Y-17682D01*
X21941Y-17733D01*
X21924Y-17800D01*
X21907Y-17834D01*
X21873Y-17868D01*
X21823Y-17885D01*
X21738Y-17885D01*
X22278Y-17885D02*
X22075Y-17885D01*
X22177Y-17885D02*
X22177Y-17531D01*
X22143Y-17581D01*
X22109Y-17615D01*
X22075Y-17632D01*
X20738Y-17885D02*
X20738Y-17531D01*
X20823Y-17531D01*
X20873Y-17548D01*
X20907Y-17581D01*
X20924Y-17615D01*
X20941Y-17682D01*
X20941Y-17733D01*
X20924Y-17800D01*
X20907Y-17834D01*
X20873Y-17868D01*
X20823Y-17885D01*
X20738Y-17885D01*
X21075Y-17564D02*
X21092Y-17548D01*
X21126Y-17531D01*
X21210Y-17531D01*
X21244Y-17548D01*
X21261Y-17564D01*
X21278Y-17598D01*
X21278Y-17632D01*
X21261Y-17682D01*
X21059Y-17885D01*
X21278Y-17885D01*
X19738Y-17885D02*
X19738Y-17531D01*
X19823Y-17531D01*
X19873Y-17548D01*
X19907Y-17581D01*
X19924Y-17615D01*
X19941Y-17682D01*
X19941Y-17733D01*
X19924Y-17800D01*
X19907Y-17834D01*
X19873Y-17868D01*
X19823Y-17885D01*
X19738Y-17885D01*
X20059Y-17531D02*
X20278Y-17531D01*
X20160Y-17666D01*
X20210Y-17666D01*
X20244Y-17682D01*
X20261Y-17699D01*
X20278Y-17733D01*
X20278Y-17817D01*
X20261Y-17851D01*
X20244Y-17868D01*
X20210Y-17885D01*
X20109Y-17885D01*
X20075Y-17868D01*
X20059Y-17851D01*
X18738Y-17885D02*
X18738Y-17531D01*
X18823Y-17531D01*
X18873Y-17548D01*
X18907Y-17581D01*
X18924Y-17615D01*
X18941Y-17682D01*
X18941Y-17733D01*
X18924Y-17800D01*
X18907Y-17834D01*
X18873Y-17868D01*
X18823Y-17885D01*
X18738Y-17885D01*
X19244Y-17649D02*
X19244Y-17885D01*
X19160Y-17514D02*
X19075Y-17767D01*
X19295Y-17767D01*
X17788Y-17885D02*
X17788Y-17531D01*
X17873Y-17531D01*
X17923Y-17548D01*
X17957Y-17581D01*
X17974Y-17615D01*
X17991Y-17682D01*
X17991Y-17733D01*
X17974Y-17800D01*
X17957Y-17834D01*
X17923Y-17868D01*
X17873Y-17885D01*
X17788Y-17885D01*
X18311Y-17531D02*
X18142Y-17531D01*
X18125Y-17699D01*
X18142Y-17682D01*
X18176Y-17666D01*
X18260Y-17666D01*
X18294Y-17682D01*
X18311Y-17699D01*
X18328Y-17733D01*
X18328Y-17817D01*
X18311Y-17851D01*
X18294Y-17868D01*
X18260Y-17885D01*
X18176Y-17885D01*
X18142Y-17868D01*
X18125Y-17851D01*
X16838Y-17885D02*
X16838Y-17531D01*
X16923Y-17531D01*
X16973Y-17548D01*
X17007Y-17581D01*
X17024Y-17615D01*
X17041Y-17682D01*
X17041Y-17733D01*
X17024Y-17800D01*
X17007Y-17834D01*
X16973Y-17868D01*
X16923Y-17885D01*
X16838Y-17885D01*
X17344Y-17531D02*
X17277Y-17531D01*
X17243Y-17548D01*
X17226Y-17564D01*
X17192Y-17615D01*
X17175Y-17682D01*
X17175Y-17817D01*
X17192Y-17851D01*
X17209Y-17868D01*
X17243Y-17885D01*
X17310Y-17885D01*
X17344Y-17868D01*
X17361Y-17851D01*
X17378Y-17817D01*
X17378Y-17733D01*
X17361Y-17699D01*
X17344Y-17682D01*
X17310Y-17666D01*
X17243Y-17666D01*
X17209Y-17682D01*
X17192Y-17699D01*
X17175Y-17733D01*
X16407Y-17406D02*
X16643Y-17406D01*
X16491Y-17760D01*
X15750Y-17640D02*
G75*
G02X16212Y-17640I231J-399D01*
G74*
G01*
X15752Y-18438D02*
G75*
G02X15522Y-18040I230J398D01*
G74*
G01*
X16443Y-18040D02*
G75*
G02X16212Y-18440I-461J0D01*
G74*
G01*
X16068Y-22441D02*
G75*
G03X16068Y-21558I-118J441D01*
G74*
G01*
X15829Y-21558D02*
G75*
G03X15826Y-22440I116J-441D01*
G74*
G01*
X15550Y-19425D02*
X16475Y-19425D01*
X15550Y-18500D02*
X15550Y-19425D01*
X16475Y-18500D02*
X15550Y-18500D01*
X16475Y-19425D02*
X16475Y-18500D01*
X29460Y-22950D02*
G75*
G03X29460Y-22950I-460J0D01*
G74*
G01*
X27550Y-22600D02*
X28450Y-22600D01*
X27550Y-23500D02*
X27550Y-22600D01*
X28450Y-23500D02*
X27550Y-23500D01*
X28450Y-22600D02*
X28450Y-23500D01*
X27450Y-17400D02*
X27450Y-16500D01*
X26550Y-17400D02*
X27450Y-17400D01*
X26550Y-16500D02*
X26550Y-17400D01*
X27450Y-16500D02*
X26550Y-16500D01*
X29325Y-22275D02*
G75*
G03X28675Y-22275I-325J325D01*
G74*
G01*
X23009Y-21007D02*
X23188Y-20699D01*
X23168Y-20965D01*
X23405Y-20791D01*
X23226Y-21100D01*
X23584Y-21215D02*
X23560Y-21223D01*
X23505Y-21218D01*
X23474Y-21205D01*
X23436Y-21171D01*
X23422Y-21128D01*
X23424Y-21092D01*
X23442Y-21027D01*
X23468Y-20983D01*
X23518Y-20930D01*
X23550Y-20908D01*
X23598Y-20891D01*
X23653Y-20896D01*
X23684Y-20910D01*
X23722Y-20944D01*
X23729Y-20965D01*
X23955Y-21409D02*
X24134Y-21101D01*
X24049Y-21248D02*
X24235Y-21327D01*
X24141Y-21488D02*
X24320Y-21180D01*
X24500Y-21604D02*
X24476Y-21612D01*
X24421Y-21607D01*
X24390Y-21594D01*
X24352Y-21559D01*
X24338Y-21517D01*
X24339Y-21481D01*
X24358Y-21415D01*
X24383Y-21371D01*
X24433Y-21319D01*
X24466Y-21296D01*
X24514Y-21280D01*
X24569Y-21285D01*
X24600Y-21298D01*
X24638Y-21333D01*
X24645Y-21354D01*
X24622Y-21692D02*
X24802Y-21384D01*
X24809Y-21771D02*
X24771Y-21536D01*
X24988Y-21463D02*
X24699Y-21560D01*
X24965Y-21801D02*
X24972Y-21823D01*
X24948Y-21831D01*
X24941Y-21809D01*
X24965Y-21801D01*
X24948Y-21831D01*
X25017Y-21713D02*
X25103Y-21530D01*
X25127Y-21522D01*
X25134Y-21543D01*
X25017Y-21713D01*
X25127Y-21522D01*
X15210Y-21267D02*
X14974Y-21238D01*
X15007Y-21242D02*
X14991Y-21223D01*
X14974Y-21187D01*
X14974Y-21137D01*
X14991Y-21105D01*
X15024Y-21092D01*
X15210Y-21116D01*
X15024Y-21092D02*
X14991Y-21071D01*
X14974Y-21035D01*
X14974Y-20985D01*
X14991Y-20953D01*
X15024Y-20941D01*
X15210Y-20964D01*
X15193Y-20641D02*
X15210Y-20677D01*
X15210Y-20745D01*
X15193Y-20776D01*
X15176Y-20791D01*
X15142Y-20804D01*
X15041Y-20791D01*
X15007Y-20770D01*
X14991Y-20751D01*
X14974Y-20715D01*
X14974Y-20648D01*
X14991Y-20616D01*
X15210Y-20492D02*
X14856Y-20448D01*
X15210Y-20340D02*
X15024Y-20317D01*
X14991Y-20330D01*
X14974Y-20361D01*
X14974Y-20412D01*
X14991Y-20448D01*
X15007Y-20467D01*
X15193Y-20018D02*
X15210Y-20054D01*
X15210Y-20121D01*
X15193Y-20153D01*
X15176Y-20167D01*
X15142Y-20180D01*
X15041Y-20167D01*
X15007Y-20146D01*
X14991Y-20127D01*
X14974Y-20091D01*
X14974Y-20024D01*
X14991Y-19992D01*
X15210Y-19868D02*
X14856Y-19824D01*
X15075Y-19818D02*
X15210Y-19733D01*
X14974Y-19704D02*
X15109Y-19855D01*
X15176Y-19577D02*
X15193Y-19563D01*
X15210Y-19582D01*
X15193Y-19596D01*
X15176Y-19577D01*
X15210Y-19582D01*
X15210Y-19362D02*
X15193Y-19394D01*
X15176Y-19409D01*
X15142Y-19421D01*
X15041Y-19409D01*
X15007Y-19388D01*
X14991Y-19369D01*
X14974Y-19333D01*
X14974Y-19282D01*
X14991Y-19251D01*
X15007Y-19236D01*
X15041Y-19223D01*
X15142Y-19236D01*
X15176Y-19257D01*
X15193Y-19276D01*
X15210Y-19312D01*
X15210Y-19362D01*
X15210Y-19093D02*
X14974Y-19063D01*
X15041Y-19072D02*
X15007Y-19051D01*
X14991Y-19032D01*
X14974Y-18996D01*
X14974Y-18962D01*
X14974Y-18692D02*
X15260Y-18728D01*
X15294Y-18749D01*
X15311Y-18768D01*
X15328Y-18804D01*
X15328Y-18855D01*
X15311Y-18886D01*
X15193Y-18720D02*
X15210Y-18756D01*
X15210Y-18823D01*
X15193Y-18855D01*
X15176Y-18869D01*
X15142Y-18882D01*
X15041Y-18869D01*
X15007Y-18848D01*
X14991Y-18829D01*
X14974Y-18793D01*
X14974Y-18726D01*
X14991Y-18694D01*
X16700Y-18800D02*
X17700Y-18800D01*
X17700Y-18800D02*
X17700Y-19400D01*
X17700Y-19400D02*
X16700Y-19400D01*
X16700Y-19400D02*
X16700Y-18800D01*
X16700Y-19400D02*
X17700Y-19400D01*
X17700Y-19400D02*
X17700Y-20000D01*
X17700Y-20000D02*
X16700Y-20000D01*
X16700Y-20000D02*
X16700Y-19400D01*
X18900Y-18600D02*
X17900Y-18600D01*
X17900Y-18600D02*
X17900Y-18000D01*
X17900Y-18000D02*
X18900Y-18000D01*
X18900Y-18000D02*
X18900Y-18600D01*
X17700Y-20600D02*
X16700Y-20600D01*
X16700Y-20600D02*
X16700Y-20000D01*
X16700Y-20000D02*
X17700Y-20000D01*
X17700Y-20000D02*
X17700Y-20600D01*
X21700Y-21400D02*
X22700Y-21400D01*
X22700Y-21400D02*
X22700Y-22000D01*
X22700Y-22000D02*
X21700Y-22000D01*
X21700Y-22000D02*
X21700Y-21400D01*
X18900Y-21400D02*
X18900Y-22400D01*
X18900Y-22400D02*
X18300Y-22400D01*
X18300Y-22400D02*
X18300Y-21400D01*
X18300Y-21400D02*
X18900Y-21400D01*
X27600Y-21350D02*
X27600Y-20350D01*
X27600Y-20350D02*
X28200Y-20350D01*
X28200Y-20350D02*
X28200Y-21350D01*
X28200Y-21350D02*
X27600Y-21350D01*
X23944Y-20398D02*
X22944Y-20398D01*
X22944Y-20398D02*
X22944Y-19798D01*
X22944Y-19798D02*
X23944Y-19798D01*
X23944Y-19798D02*
X23944Y-20398D01*
X23414Y-19428D02*
X23534Y-19488D01*
X23534Y-19488D02*
X23414Y-19548D01*
X23414Y-19548D02*
X23414Y-19428D01*
X22949Y-19238D02*
X23999Y-19238D01*
X23999Y-19238D02*
X23999Y-19738D01*
X23999Y-19738D02*
X22949Y-19738D01*
X22949Y-19738D02*
X22949Y-19238D01*
X19080Y-21299D02*
X19001Y-21220D01*
X19001Y-21220D02*
X19001Y-18780D01*
X19001Y-18780D02*
X19080Y-18701D01*
X19080Y-18701D02*
X21520Y-18701D01*
X21520Y-18701D02*
X21599Y-18780D01*
X21520Y-21299D02*
X19080Y-21299D01*
X21599Y-18780D02*
X21599Y-21220D01*
X19080Y-21339D02*
X18961Y-21220D01*
X21639Y-21220D02*
X21520Y-21339D01*
X21520Y-18661D02*
X21639Y-18780D01*
X19080Y-18661D02*
X18961Y-18780D01*
G54D14*
X18649Y-18542D02*
G75*
G03X18649Y-18542I-41J0D01*
G74*
G01*
G54D15*
X19411Y-19075D02*
G75*
G03X19411Y-19075I-55J0D01*
G74*
G01*
G54D11*
X17700Y-21200D02*
X16700Y-21200D01*
X16700Y-21200D02*
X16700Y-20600D01*
X16700Y-20600D02*
X17700Y-20600D01*
X17700Y-20600D02*
X17700Y-21200D01*
X28300Y-21360D02*
X28300Y-19060D01*
X28300Y-19060D02*
X29600Y-19060D01*
X29600Y-19060D02*
X29600Y-21360D01*
X29600Y-21360D02*
X28300Y-21360D01*
X17700Y-22400D02*
X17700Y-21400D01*
X17700Y-21400D02*
X18300Y-21400D01*
X18300Y-21400D02*
X18300Y-22400D01*
X18300Y-22400D02*
X17700Y-22400D01*
X18160Y-19034D02*
X17991Y-19152D01*
X18160Y-19236D02*
X17806Y-19236D01*
X17806Y-19101D01*
X17823Y-19067D01*
X17839Y-19050D01*
X17873Y-19034D01*
X17924Y-19034D01*
X17957Y-19050D01*
X17974Y-19067D01*
X17991Y-19101D01*
X17991Y-19236D01*
X18160Y-18696D02*
X18160Y-18899D01*
X18160Y-18798D02*
X17806Y-18798D01*
X17856Y-18831D01*
X17890Y-18865D01*
X17907Y-18899D01*
X18160Y-19709D02*
X17991Y-19827D01*
X18160Y-19911D02*
X17806Y-19911D01*
X17806Y-19776D01*
X17823Y-19742D01*
X17839Y-19725D01*
X17873Y-19709D01*
X17924Y-19709D01*
X17957Y-19725D01*
X17974Y-19742D01*
X17991Y-19776D01*
X17991Y-19911D01*
X17839Y-19574D02*
X17823Y-19557D01*
X17806Y-19523D01*
X17806Y-19439D01*
X17823Y-19405D01*
X17839Y-19388D01*
X17873Y-19371D01*
X17907Y-19371D01*
X17957Y-19388D01*
X18160Y-19591D01*
X18160Y-19371D01*
X17441Y-18476D02*
X17424Y-18493D01*
X17373Y-18510D01*
X17339Y-18510D01*
X17289Y-18493D01*
X17255Y-18459D01*
X17238Y-18425D01*
X17221Y-18358D01*
X17221Y-18307D01*
X17238Y-18240D01*
X17255Y-18206D01*
X17289Y-18173D01*
X17339Y-18156D01*
X17373Y-18156D01*
X17424Y-18173D01*
X17441Y-18189D01*
X17559Y-18156D02*
X17778Y-18156D01*
X17660Y-18291D01*
X17710Y-18291D01*
X17744Y-18307D01*
X17761Y-18324D01*
X17778Y-18358D01*
X17778Y-18442D01*
X17761Y-18476D01*
X17744Y-18493D01*
X17710Y-18510D01*
X17609Y-18510D01*
X17575Y-18493D01*
X17559Y-18476D01*
X18126Y-20384D02*
X18143Y-20400D01*
X18160Y-20451D01*
X18160Y-20485D01*
X18143Y-20535D01*
X18109Y-20569D01*
X18075Y-20586D01*
X18008Y-20603D01*
X17957Y-20603D01*
X17890Y-20586D01*
X17856Y-20569D01*
X17823Y-20535D01*
X17806Y-20485D01*
X17806Y-20451D01*
X17823Y-20400D01*
X17839Y-20384D01*
X18160Y-20046D02*
X18160Y-20249D01*
X18160Y-20148D02*
X17806Y-20148D01*
X17856Y-20181D01*
X17890Y-20215D01*
X17907Y-20249D01*
X23126Y-21759D02*
X23143Y-21775D01*
X23160Y-21826D01*
X23160Y-21860D01*
X23143Y-21910D01*
X23109Y-21944D01*
X23075Y-21961D01*
X23008Y-21978D01*
X22957Y-21978D01*
X22890Y-21961D01*
X22856Y-21944D01*
X22823Y-21910D01*
X22806Y-21860D01*
X22806Y-21826D01*
X22823Y-21775D01*
X22839Y-21759D01*
X22806Y-21438D02*
X22806Y-21607D01*
X22974Y-21624D01*
X22957Y-21607D01*
X22941Y-21573D01*
X22941Y-21489D01*
X22957Y-21455D01*
X22974Y-21438D01*
X23008Y-21421D01*
X23092Y-21421D01*
X23126Y-21438D01*
X23143Y-21455D01*
X23160Y-21489D01*
X23160Y-21573D01*
X23143Y-21607D01*
X23126Y-21624D01*
X17526Y-21759D02*
X17543Y-21775D01*
X17560Y-21826D01*
X17560Y-21860D01*
X17543Y-21910D01*
X17509Y-21944D01*
X17475Y-21961D01*
X17408Y-21978D01*
X17357Y-21978D01*
X17290Y-21961D01*
X17256Y-21944D01*
X17223Y-21910D01*
X17206Y-21860D01*
X17206Y-21826D01*
X17223Y-21775D01*
X17239Y-21759D01*
X17324Y-21455D02*
X17560Y-21455D01*
X17189Y-21539D02*
X17442Y-21624D01*
X17442Y-21405D01*
X27841Y-20226D02*
X27824Y-20243D01*
X27773Y-20260D01*
X27739Y-20260D01*
X27689Y-20243D01*
X27655Y-20209D01*
X27638Y-20175D01*
X27621Y-20108D01*
X27621Y-20057D01*
X27638Y-19990D01*
X27655Y-19956D01*
X27689Y-19923D01*
X27739Y-19906D01*
X27773Y-19906D01*
X27824Y-19923D01*
X27841Y-19939D01*
X28144Y-19906D02*
X28077Y-19906D01*
X28043Y-19923D01*
X28026Y-19939D01*
X27992Y-19990D01*
X27975Y-20057D01*
X27975Y-20192D01*
X27992Y-20226D01*
X28009Y-20243D01*
X28043Y-20260D01*
X28110Y-20260D01*
X28144Y-20243D01*
X28161Y-20226D01*
X28178Y-20192D01*
X28178Y-20108D01*
X28161Y-20074D01*
X28144Y-20057D01*
X28110Y-20041D01*
X28043Y-20041D01*
X28009Y-20057D01*
X27992Y-20074D01*
X27975Y-20108D01*
X22810Y-20259D02*
X22641Y-20377D01*
X22810Y-20461D02*
X22456Y-20461D01*
X22456Y-20326D01*
X22473Y-20292D01*
X22489Y-20275D01*
X22523Y-20259D01*
X22574Y-20259D01*
X22607Y-20275D01*
X22624Y-20292D01*
X22641Y-20326D01*
X22641Y-20461D01*
X22456Y-20141D02*
X22456Y-19921D01*
X22591Y-20039D01*
X22591Y-19989D01*
X22607Y-19955D01*
X22624Y-19938D01*
X22658Y-19921D01*
X22742Y-19921D01*
X22776Y-19938D01*
X22793Y-19955D01*
X22810Y-19989D01*
X22810Y-20090D01*
X22793Y-20124D01*
X22776Y-20141D01*
X22810Y-19661D02*
X22456Y-19661D01*
X22456Y-19577D01*
X22473Y-19526D01*
X22506Y-19492D01*
X22540Y-19475D01*
X22607Y-19459D01*
X22658Y-19459D01*
X22725Y-19475D01*
X22759Y-19492D01*
X22793Y-19526D01*
X22810Y-19577D01*
X22810Y-19661D01*
X22810Y-19121D02*
X22810Y-19324D01*
X22810Y-19223D02*
X22456Y-19223D01*
X22506Y-19256D01*
X22540Y-19290D01*
X22557Y-19324D01*
X20030Y-19806D02*
X20030Y-20092D01*
X20047Y-20126D01*
X20064Y-20143D01*
X20097Y-20160D01*
X20165Y-20160D01*
X20198Y-20143D01*
X20215Y-20126D01*
X20232Y-20092D01*
X20232Y-19806D01*
X20586Y-20160D02*
X20384Y-20160D01*
X20485Y-20160D02*
X20485Y-19806D01*
X20451Y-19856D01*
X20418Y-19890D01*
X20384Y-19907D01*
X18126Y-21059D02*
X18143Y-21075D01*
X18160Y-21126D01*
X18160Y-21160D01*
X18143Y-21210D01*
X18109Y-21244D01*
X18075Y-21261D01*
X18008Y-21278D01*
X17957Y-21278D01*
X17890Y-21261D01*
X17856Y-21244D01*
X17823Y-21210D01*
X17806Y-21160D01*
X17806Y-21126D01*
X17823Y-21075D01*
X17839Y-21059D01*
X17839Y-20924D02*
X17823Y-20907D01*
X17806Y-20873D01*
X17806Y-20789D01*
X17823Y-20755D01*
X17839Y-20738D01*
X17873Y-20721D01*
X17907Y-20721D01*
X17957Y-20738D01*
X18160Y-20941D01*
X18160Y-20721D01*
X28680Y-20353D02*
X28730Y-20370D01*
X28815Y-20370D01*
X28848Y-20353D01*
X28865Y-20336D01*
X28882Y-20302D01*
X28882Y-20269D01*
X28865Y-20235D01*
X28848Y-20218D01*
X28815Y-20201D01*
X28747Y-20184D01*
X28714Y-20167D01*
X28697Y-20151D01*
X28680Y-20117D01*
X28680Y-20083D01*
X28697Y-20049D01*
X28714Y-20033D01*
X28747Y-20016D01*
X28832Y-20016D01*
X28882Y-20033D01*
X29219Y-20370D02*
X29017Y-20370D01*
X29118Y-20370D02*
X29118Y-20016D01*
X29084Y-20066D01*
X29051Y-20100D01*
X29017Y-20117D01*
X17026Y-21759D02*
X17043Y-21775D01*
X17060Y-21826D01*
X17060Y-21860D01*
X17043Y-21910D01*
X17009Y-21944D01*
X16975Y-21961D01*
X16908Y-21978D01*
X16857Y-21978D01*
X16790Y-21961D01*
X16756Y-21944D01*
X16723Y-21910D01*
X16706Y-21860D01*
X16706Y-21826D01*
X16723Y-21775D01*
X16739Y-21759D01*
X16857Y-21556D02*
X16841Y-21590D01*
X16824Y-21607D01*
X16790Y-21624D01*
X16773Y-21624D01*
X16739Y-21607D01*
X16723Y-21590D01*
X16706Y-21556D01*
X16706Y-21489D01*
X16723Y-21455D01*
X16739Y-21438D01*
X16773Y-21421D01*
X16790Y-21421D01*
X16824Y-21438D01*
X16841Y-21455D01*
X16857Y-21489D01*
X16857Y-21556D01*
X16874Y-21590D01*
X16891Y-21607D01*
X16925Y-21624D01*
X16992Y-21624D01*
X17026Y-21607D01*
X17043Y-21590D01*
X17060Y-21556D01*
X17060Y-21489D01*
X17043Y-21455D01*
X17026Y-21438D01*
X16992Y-21421D01*
X16925Y-21421D01*
X16891Y-21438D01*
X16874Y-21455D01*
X16857Y-21489D01*
%LPC*%
G54D16*
X24000Y-18050D03*
X25000Y-17950D03*
X26000Y-18050D03*
X27000Y-17950D03*
X28000Y-18050D03*
X29000Y-17950D03*
X26000Y-22050D03*
X27000Y-21950D03*
X28000Y-22050D03*
X29000Y-21950D03*
G54D17*
X25160Y-20420D03*
G54D16*
X16000Y-17050D03*
X17000Y-16950D03*
X18000Y-17050D03*
X19000Y-16950D03*
X20000Y-17050D03*
X21000Y-16950D03*
X22000Y-17050D03*
X23000Y-16950D03*
X24000Y-17050D03*
X25000Y-16950D03*
X26000Y-17050D03*
X27000Y-16950D03*
X28000Y-17050D03*
X29000Y-16950D03*
X16000Y-23050D03*
X17000Y-22950D03*
X18000Y-23050D03*
X19000Y-22950D03*
X20000Y-23050D03*
X21000Y-22950D03*
X22000Y-23050D03*
X23000Y-22950D03*
X24000Y-23050D03*
X25000Y-22950D03*
X26000Y-23050D03*
X27000Y-22950D03*
X28000Y-23050D03*
X29000Y-22950D03*
G54D18*
X11930Y-21377D03*
X11930Y-18623D03*
G54D19*
X12126Y-20393D03*
X12126Y-19607D03*
G54D20*
X16900Y-19100D03*
X17500Y-19100D03*
X16900Y-19700D03*
X17500Y-19700D03*
X18700Y-18300D03*
X18100Y-18300D03*
X17500Y-20300D03*
X16900Y-20300D03*
X21900Y-21700D03*
X22500Y-21700D03*
G54D21*
X18600Y-21600D03*
X18600Y-22200D03*
X27900Y-21150D03*
X27900Y-20550D03*
G54D20*
X23744Y-20098D03*
X23144Y-20098D03*
G54D22*
X23179Y-19488D03*
X23769Y-19488D03*
G54D23*
X18608Y-18918D03*
X18608Y-19115D03*
X18608Y-19312D03*
X18608Y-19508D03*
X18608Y-19705D03*
X18608Y-19902D03*
X18608Y-20098D03*
X18608Y-20295D03*
X18608Y-20492D03*
X18608Y-20688D03*
X18608Y-20885D03*
X18608Y-21082D03*
G54D24*
X19218Y-21692D03*
X19415Y-21692D03*
X19612Y-21692D03*
X19808Y-21692D03*
X20005Y-21692D03*
X20202Y-21692D03*
X20398Y-21692D03*
X20595Y-21692D03*
X20792Y-21692D03*
X20988Y-21692D03*
X21185Y-21692D03*
X21382Y-21692D03*
G54D23*
X21992Y-21082D03*
X21992Y-20885D03*
X21992Y-20688D03*
X21992Y-20492D03*
X21992Y-20295D03*
X21992Y-20098D03*
X21992Y-19902D03*
X21992Y-19705D03*
X21992Y-19508D03*
X21992Y-19312D03*
X21992Y-19115D03*
X21992Y-18918D03*
G54D24*
X21382Y-18308D03*
X21185Y-18308D03*
X20988Y-18308D03*
X20792Y-18308D03*
X20595Y-18308D03*
X20398Y-18308D03*
X20202Y-18308D03*
X20005Y-18308D03*
X19808Y-18308D03*
X19612Y-18308D03*
X19415Y-18308D03*
X19218Y-18308D03*
G54D16*
X15950Y-22000D03*
X16050Y-21000D03*
X15950Y-20000D03*
X16015Y-18960D03*
X15985Y-18040D03*
G54D20*
X17500Y-20900D03*
X16900Y-20900D03*
G54D25*
X28615Y-20958D03*
X29284Y-20958D03*
X28615Y-19461D03*
X29285Y-19461D03*
G54D21*
X18000Y-22200D03*
X18000Y-21600D03*
M02*
